<mxfile host="app.diagrams.net" modified="2020-11-12T07:36:08.199Z" agent="5.0 (Macintosh; Intel Mac OS X 10_13_4) AppleWebKit/537.36 (KHTML, like Gecko) Chrome/86.0.4240.183 Safari/537.36" etag="vonI-nH-hggB_47CrOo3" version="13.8.1" type="github">
  <diagram id="876Mq8gu21DewVFqY4Pz" name="Page-1">
    <mxGraphModel dx="2253" dy="771" grid="1" gridSize="10" guides="1" tooltips="1" connect="1" arrows="1" fold="1" page="1" pageScale="1" pageWidth="827" pageHeight="1169" math="0" shadow="0">
      <root>
        <mxCell id="0" />
        <mxCell id="1" parent="0" />
        <mxCell id="-kK-1f4OvQq3OBHwmIAj-12" value="" style="rounded=0;whiteSpace=wrap;html=1;" vertex="1" parent="1">
          <mxGeometry x="50" y="320" width="280" height="70" as="geometry" />
        </mxCell>
        <mxCell id="-kK-1f4OvQq3OBHwmIAj-11" value="" style="rounded=0;whiteSpace=wrap;html=1;" vertex="1" parent="1">
          <mxGeometry x="50" y="220" width="280" height="80" as="geometry" />
        </mxCell>
        <mxCell id="Kc2hC6N4wcZES-Si-xsR-30" value="" style="rounded=0;whiteSpace=wrap;html=1;" parent="1" vertex="1">
          <mxGeometry x="405" y="30" width="250" height="80" as="geometry" />
        </mxCell>
        <mxCell id="Kc2hC6N4wcZES-Si-xsR-29" value="" style="rounded=0;whiteSpace=wrap;html=1;" parent="1" vertex="1">
          <mxGeometry x="405" y="130" width="250" height="80" as="geometry" />
        </mxCell>
        <mxCell id="Kc2hC6N4wcZES-Si-xsR-28" value="" style="rounded=0;whiteSpace=wrap;html=1;" parent="1" vertex="1">
          <mxGeometry x="405" y="400" width="250" height="80" as="geometry" />
        </mxCell>
        <mxCell id="Kc2hC6N4wcZES-Si-xsR-26" value="" style="rounded=0;whiteSpace=wrap;html=1;" parent="1" vertex="1">
          <mxGeometry x="405" y="510" width="250" height="80" as="geometry" />
        </mxCell>
        <mxCell id="Kc2hC6N4wcZES-Si-xsR-2" value="初始化" style="rounded=1;whiteSpace=wrap;html=1;" parent="1" vertex="1">
          <mxGeometry x="190" y="40" width="120" height="60" as="geometry" />
        </mxCell>
        <mxCell id="Kc2hC6N4wcZES-Si-xsR-3" value="可售" style="rounded=1;whiteSpace=wrap;html=1;" parent="1" vertex="1">
          <mxGeometry x="190" y="410" width="120" height="60" as="geometry" />
        </mxCell>
        <mxCell id="Kc2hC6N4wcZES-Si-xsR-4" value="可售" style="rounded=1;whiteSpace=wrap;html=1;" parent="1" vertex="1">
          <mxGeometry x="490" y="50" width="60" height="40" as="geometry" />
        </mxCell>
        <mxCell id="Kc2hC6N4wcZES-Si-xsR-5" value="--" style="rounded=1;whiteSpace=wrap;html=1;" parent="1" vertex="1">
          <mxGeometry x="190" y="630" width="120" height="60" as="geometry" />
        </mxCell>
        <mxCell id="Kc2hC6N4wcZES-Si-xsR-32" style="edgeStyle=orthogonalEdgeStyle;rounded=0;orthogonalLoop=1;jettySize=auto;html=1;exitX=1;exitY=0.5;exitDx=0;exitDy=0;" parent="1" source="Kc2hC6N4wcZES-Si-xsR-6" edge="1">
          <mxGeometry relative="1" as="geometry">
            <mxPoint x="400" y="550" as="targetPoint" />
          </mxGeometry>
        </mxCell>
        <mxCell id="Kc2hC6N4wcZES-Si-xsR-6" value="停购" style="rounded=1;whiteSpace=wrap;html=1;" parent="1" vertex="1">
          <mxGeometry x="190" y="520" width="120" height="60" as="geometry" />
        </mxCell>
        <mxCell id="Kc2hC6N4wcZES-Si-xsR-7" value="停售" style="rounded=1;whiteSpace=wrap;html=1;" parent="1" vertex="1">
          <mxGeometry x="190" y="130" width="120" height="60" as="geometry" />
        </mxCell>
        <mxCell id="Kc2hC6N4wcZES-Si-xsR-8" value="禁售" style="rounded=1;whiteSpace=wrap;html=1;" parent="1" vertex="1">
          <mxGeometry x="190" y="230" width="120" height="60" as="geometry" />
        </mxCell>
        <mxCell id="Kc2hC6N4wcZES-Si-xsR-9" value="" style="shape=curlyBracket;whiteSpace=wrap;html=1;rounded=1;" parent="1" vertex="1">
          <mxGeometry x="-20" y="50" width="20" height="660" as="geometry" />
        </mxCell>
        <mxCell id="Kc2hC6N4wcZES-Si-xsR-13" value="" style="edgeStyle=orthogonalEdgeStyle;rounded=0;orthogonalLoop=1;jettySize=auto;html=1;" parent="1" source="Kc2hC6N4wcZES-Si-xsR-12" edge="1">
          <mxGeometry relative="1" as="geometry">
            <mxPoint x="-20" y="380" as="targetPoint" />
          </mxGeometry>
        </mxCell>
        <mxCell id="Kc2hC6N4wcZES-Si-xsR-12" value="spu状态" style="text;html=1;strokeColor=none;fillColor=none;align=center;verticalAlign=middle;whiteSpace=wrap;rounded=0;" parent="1" vertex="1">
          <mxGeometry x="-110" y="370" width="50" height="20" as="geometry" />
        </mxCell>
        <mxCell id="Kc2hC6N4wcZES-Si-xsR-15" value="停购" style="rounded=1;whiteSpace=wrap;html=1;" parent="1" vertex="1">
          <mxGeometry x="505" y="530" width="60" height="40" as="geometry" />
        </mxCell>
        <mxCell id="Kc2hC6N4wcZES-Si-xsR-16" value="停售" style="rounded=1;whiteSpace=wrap;html=1;" parent="1" vertex="1">
          <mxGeometry x="590" y="420" width="60" height="40" as="geometry" />
        </mxCell>
        <mxCell id="Kc2hC6N4wcZES-Si-xsR-17" value="禁售" style="rounded=1;whiteSpace=wrap;html=1;" parent="1" vertex="1">
          <mxGeometry x="415" y="420" width="60" height="40" as="geometry" />
        </mxCell>
        <mxCell id="Kc2hC6N4wcZES-Si-xsR-18" value="停购" style="rounded=1;whiteSpace=wrap;html=1;" parent="1" vertex="1">
          <mxGeometry x="500" y="420" width="60" height="40" as="geometry" />
        </mxCell>
        <mxCell id="Kc2hC6N4wcZES-Si-xsR-19" value="可售" style="rounded=1;whiteSpace=wrap;html=1;" parent="1" vertex="1">
          <mxGeometry x="415" y="150" width="60" height="40" as="geometry" />
        </mxCell>
        <mxCell id="Kc2hC6N4wcZES-Si-xsR-20" value="可售" style="rounded=1;whiteSpace=wrap;html=1;" parent="1" vertex="1">
          <mxGeometry x="595" y="530" width="60" height="40" as="geometry" />
        </mxCell>
        <mxCell id="Kc2hC6N4wcZES-Si-xsR-21" value="禁售" style="rounded=1;whiteSpace=wrap;html=1;" parent="1" vertex="1">
          <mxGeometry x="420" y="530" width="60" height="40" as="geometry" />
        </mxCell>
        <mxCell id="Kc2hC6N4wcZES-Si-xsR-23" value="禁售" style="rounded=1;whiteSpace=wrap;html=1;" parent="1" vertex="1">
          <mxGeometry x="495" y="150" width="60" height="40" as="geometry" />
        </mxCell>
        <mxCell id="Kc2hC6N4wcZES-Si-xsR-24" value="停购" style="rounded=1;whiteSpace=wrap;html=1;" parent="1" vertex="1">
          <mxGeometry x="585" y="150" width="60" height="40" as="geometry" />
        </mxCell>
        <mxCell id="Kc2hC6N4wcZES-Si-xsR-33" style="edgeStyle=orthogonalEdgeStyle;rounded=0;orthogonalLoop=1;jettySize=auto;html=1;exitX=1;exitY=0.5;exitDx=0;exitDy=0;" parent="1" edge="1">
          <mxGeometry relative="1" as="geometry">
            <mxPoint x="400" y="69.5" as="targetPoint" />
            <mxPoint x="310" y="69.5" as="sourcePoint" />
          </mxGeometry>
        </mxCell>
        <mxCell id="Kc2hC6N4wcZES-Si-xsR-34" style="edgeStyle=orthogonalEdgeStyle;rounded=0;orthogonalLoop=1;jettySize=auto;html=1;exitX=1;exitY=0.5;exitDx=0;exitDy=0;" parent="1" edge="1">
          <mxGeometry relative="1" as="geometry">
            <mxPoint x="400" y="159.5" as="targetPoint" />
            <mxPoint x="310" y="159.5" as="sourcePoint" />
          </mxGeometry>
        </mxCell>
        <mxCell id="Kc2hC6N4wcZES-Si-xsR-35" style="edgeStyle=orthogonalEdgeStyle;rounded=0;orthogonalLoop=1;jettySize=auto;html=1;exitX=1;exitY=0.5;exitDx=0;exitDy=0;" parent="1" edge="1">
          <mxGeometry relative="1" as="geometry">
            <mxPoint x="405" y="440" as="targetPoint" />
            <mxPoint x="315" y="440" as="sourcePoint" />
          </mxGeometry>
        </mxCell>
        <mxCell id="Kc2hC6N4wcZES-Si-xsR-37" value="转化" style="text;html=1;strokeColor=none;fillColor=none;align=center;verticalAlign=middle;whiteSpace=wrap;rounded=0;" parent="1" vertex="1">
          <mxGeometry x="330" y="50" width="40" height="20" as="geometry" />
        </mxCell>
        <mxCell id="Kc2hC6N4wcZES-Si-xsR-38" value="转化" style="text;html=1;strokeColor=none;fillColor=none;align=center;verticalAlign=middle;whiteSpace=wrap;rounded=0;" parent="1" vertex="1">
          <mxGeometry x="330" y="130" width="40" height="20" as="geometry" />
        </mxCell>
        <mxCell id="Kc2hC6N4wcZES-Si-xsR-39" value="转化" style="text;html=1;strokeColor=none;fillColor=none;align=center;verticalAlign=middle;whiteSpace=wrap;rounded=0;" parent="1" vertex="1">
          <mxGeometry x="330" y="410" width="40" height="20" as="geometry" />
        </mxCell>
        <mxCell id="Kc2hC6N4wcZES-Si-xsR-40" value="转化" style="text;html=1;strokeColor=none;fillColor=none;align=center;verticalAlign=middle;whiteSpace=wrap;rounded=0;" parent="1" vertex="1">
          <mxGeometry x="330" y="520" width="40" height="20" as="geometry" />
        </mxCell>
        <mxCell id="Kc2hC6N4wcZES-Si-xsR-41" value="all sku status=100" style="rounded=0;whiteSpace=wrap;html=1;" parent="1" vertex="1">
          <mxGeometry x="80" y="60" width="110" height="20" as="geometry" />
        </mxCell>
        <mxCell id="Kc2hC6N4wcZES-Si-xsR-44" value="all sku status=300" style="rounded=0;whiteSpace=wrap;html=1;" parent="1" vertex="1">
          <mxGeometry x="80" y="540" width="110" height="20" as="geometry" />
        </mxCell>
        <mxCell id="Kc2hC6N4wcZES-Si-xsR-45" value="only one&amp;nbsp; sku status=200" style="rounded=0;whiteSpace=wrap;html=1;" parent="1" vertex="1">
          <mxGeometry x="50" y="430" width="140" height="20" as="geometry" />
        </mxCell>
        <mxCell id="Kc2hC6N4wcZES-Si-xsR-46" value="all sku status=500" style="rounded=0;whiteSpace=wrap;html=1;" parent="1" vertex="1">
          <mxGeometry x="80" y="250" width="110" height="20" as="geometry" />
        </mxCell>
        <mxCell id="Kc2hC6N4wcZES-Si-xsR-47" value="all sku status=600" style="rounded=0;whiteSpace=wrap;html=1;" parent="1" vertex="1">
          <mxGeometry x="80" y="150" width="110" height="20" as="geometry" />
        </mxCell>
        <mxCell id="Kc2hC6N4wcZES-Si-xsR-49" value="not sku status=200 &amp;amp;other status" style="rounded=0;whiteSpace=wrap;html=1;" parent="1" vertex="1">
          <mxGeometry x="60" y="647.5" width="130" height="25" as="geometry" />
        </mxCell>
        <mxCell id="-kK-1f4OvQq3OBHwmIAj-9" value="禁售" style="rounded=1;whiteSpace=wrap;html=1;" vertex="1" parent="1">
          <mxGeometry x="190" y="320" width="120" height="60" as="geometry" />
        </mxCell>
        <mxCell id="-kK-1f4OvQq3OBHwmIAj-10" value="only one sku status=500" style="rounded=0;whiteSpace=wrap;html=1;" vertex="1" parent="1">
          <mxGeometry x="55" y="340" width="135" height="20" as="geometry" />
        </mxCell>
        <mxCell id="-kK-1f4OvQq3OBHwmIAj-15" value="单品" style="text;html=1;strokeColor=none;fillColor=none;align=center;verticalAlign=middle;whiteSpace=wrap;rounded=0;" vertex="1" parent="1">
          <mxGeometry x="55" y="220" width="40" height="20" as="geometry" />
        </mxCell>
        <mxCell id="-kK-1f4OvQq3OBHwmIAj-16" value="套餐" style="text;html=1;strokeColor=none;fillColor=none;align=center;verticalAlign=middle;whiteSpace=wrap;rounded=0;" vertex="1" parent="1">
          <mxGeometry x="55" y="320" width="40" height="20" as="geometry" />
        </mxCell>
      </root>
    </mxGraphModel>
  </diagram>
</mxfile>
